<svg xmlns="http://www.w3.org/2000/svg" viewBox="0 0 612 79" width="612" height="79">
  <!-- Background -->
  <rect width="612" height="79" fill="white"/>

  <!-- Pink accent line at top -->
  <rect x="0" y="0" width="612" height="2" fill="#E91E8C"/>

  <!-- Call section with phone icon -->
  <g transform="translate(40, 25)">
    <!-- Phone icon circle -->
    <circle cx="18" cy="18" r="17" fill="#FCE4F1" stroke="#E91E8C" stroke-width="1.5"/>
    <!-- Phone icon -->
    <path d="M12 10 L12 14 Q12 16 14 16 L15 16 L15 20 Q15 22 17 22 L19 22 Q21 22 21 20 L21 16 L22 16 Q24 16 24 14 L24 10"
          fill="none" stroke="#E91E8C" stroke-width="1.5" stroke-linecap="round"/>
    <rect x="13" y="11" width="10" height="4" rx="1" fill="#E91E8C"/>

    <!-- Call text -->
    <text x="45" y="14" font-family="Arial, Helvetica, sans-serif" font-size="11" font-weight="600" fill="#333333">Call</text>
    <text x="45" y="30" font-family="Arial, Helvetica, sans-serif" font-size="11" fill="#555555">(213) 237-1454</text>
  </g>

  <!-- Message section with globe icon -->
  <g transform="translate(220, 25)">
    <!-- Globe icon -->
    <circle cx="18" cy="18" r="16" fill="none" stroke="#333333" stroke-width="1.5"/>
    <ellipse cx="18" cy="18" rx="6" ry="16" fill="none" stroke="#333333" stroke-width="1.2"/>
    <line x1="2" y1="18" x2="34" y2="18" stroke="#333333" stroke-width="1.2"/>
    <line x1="18" y1="2" x2="18" y2="34" stroke="#333333" stroke-width="1.2"/>
    <path d="M5 10 Q18 8 31 10" fill="none" stroke="#333333" stroke-width="1"/>
    <path d="M5 26 Q18 28 31 26" fill="none" stroke="#333333" stroke-width="1"/>

    <!-- Message text -->
    <text x="45" y="14" font-family="Arial, Helvetica, sans-serif" font-size="11" font-weight="600" fill="#333333">Message</text>
    <text x="45" y="30" font-family="Arial, Helvetica, sans-serif" font-size="11" fill="#555555">support@fountain.net</text>
  </g>

  <!-- Office Address section with location pin -->
  <g transform="translate(430, 25)">
    <!-- Location pin icon -->
    <path d="M18 2 C10 2 4 8 4 15 C4 24 18 36 18 36 C18 36 32 24 32 15 C32 8 26 2 18 2 Z"
          fill="none" stroke="#E91E8C" stroke-width="2"/>
    <circle cx="18" cy="14" r="5" fill="#E91E8C"/>

    <!-- Address text -->
    <text x="45" y="10" font-family="Arial, Helvetica, sans-serif" font-size="11" font-weight="600" fill="#333333">Office Address</text>
    <text x="45" y="24" font-family="Arial, Helvetica, sans-serif" font-size="10" fill="#555555">2064 Park Street,</text>
    <text x="45" y="37" font-family="Arial, Helvetica, sans-serif" font-size="10" fill="#555555">Jacksonville, FL 32204</text>
  </g>
</svg>